HIERARCHY
ROOT Hips
{
	OFFSET 0.000000 0.000000 0.000000 
	CHANNELS 6 Xposition Yposition Zposition Zrotation Yrotation Xrotation
	JOINT LeftUpLeg
	{
		OFFSET 1.363060 -1.794630 0.839290 
		CHANNELS 3 Zrotation Yrotation Xrotation
		JOINT LeftLeg
		{
			OFFSET 2.448110 -6.726130 0.000000 
			CHANNELS 3 Zrotation Yrotation Xrotation
			JOINT LeftFoot
			{
				OFFSET 2.562200 -7.039590 0.000000 
				CHANNELS 3 Zrotation Yrotation Xrotation
				JOINT LeftToeBase
				{
					OFFSET 0.157640 -0.433110 2.322550 
					CHANNELS 3 Zrotation Yrotation Xrotation
					End Site
					{
						OFFSET 0.000000 0.000000 0.000000 
					}
				}
			}
		}
	}
	JOINT RightUpLeg
	{
		OFFSET -1.305520 -1.794630 0.839290 
		CHANNELS 3 Zrotation Yrotation Xrotation
		JOINT RightLeg
		{
			OFFSET -2.542530 -6.985550 0.000000 
			CHANNELS 3 Zrotation Yrotation Xrotation
			JOINT RightFoot
			{
				OFFSET -2.568260 -7.056230 0.000000 
				CHANNELS 3 Zrotation Yrotation Xrotation
				JOINT RightToeBase
				{
					OFFSET -0.164730 -0.452590 2.363150 
					CHANNELS 3 Zrotation Yrotation Xrotation
					End Site
					{
						OFFSET 0.000000 0.000000 0.000000 
					}
				}
			}
		}
	}
	JOINT Spine
	{
		OFFSET 0.028270 2.035590 -0.193380 
		CHANNELS 3 Zrotation Yrotation Xrotation
		JOINT Spine1
		{
			OFFSET 0.056720 2.048850 -0.042750 
			CHANNELS 3 Zrotation Yrotation Xrotation
			JOINT Neck1
			{
				OFFSET -0.054170 1.746240 0.172020 
				CHANNELS 3 Zrotation Yrotation Xrotation
				JOINT Head
				{
					OFFSET 0.104070 1.761360 -0.123970 
					CHANNELS 3 Zrotation Yrotation Xrotation
					End Site
					{
						OFFSET 0.000000 0.000000 0.000000 
					}
				}
			}
			JOINT LeftArm
			{
				OFFSET 3.362410 1.200890 -0.311210 
				CHANNELS 3 Zrotation Yrotation Xrotation
				JOINT LeftForeArm
				{
					OFFSET 4.983000 -0.000000 -0.000000 
					CHANNELS 3 Zrotation Yrotation Xrotation
					JOINT LeftHand
					{
						OFFSET 3.483560 -0.000000 -0.000000 
						CHANNELS 3 Zrotation Yrotation Xrotation
						JOINT LeftHandIndex1
						{
							OFFSET 0.715260 -0.000000 -0.000000 
							CHANNELS 3 Zrotation Yrotation Xrotation
							End Site
							{
								OFFSET 0.000000 0.000000 0.000000 
							}
						}
					}
				}
			}
			JOINT RightArm
			{
				OFFSET -3.136600 1.374050 -0.404650 
				CHANNELS 3 Zrotation Yrotation Xrotation
				JOINT RightForeArm
				{
					OFFSET -5.241900 -0.000000 -0.000000 
					CHANNELS 3 Zrotation Yrotation Xrotation
					JOINT RightHand
					{
						OFFSET -3.444170 -0.000000 -0.000000 
						CHANNELS 3 Zrotation Yrotation Xrotation
						JOINT RightHandIndex1
						{
							OFFSET -0.622530 -0.000000 -0.000000 
							CHANNELS 3 Zrotation Yrotation Xrotation
							End Site
							{
								OFFSET 0.000000 0.000000 0.000000 
							}
						}
					}
				}
			}
		}
	}
}
MOTION
Frames: 13
Frame Time: 0.041667
26.917751 17.399677 1.869863 -102.235710 -83.287132 112.444203 -31.785840 -32.144047 11.363584 -12.920734 -0.676279 0.901576 3.120968 13.161283 -41.643036 9.217900 -16.945900 -56.840700 39.656760 32.361277 1.769725 13.644545 2.072262 -6.252359 0.448199 -25.249915 -25.817621 -0.436900 4.241700 -11.757500 1.489739 0.863427 -4.817102 1.668507 0.045378 -16.207759 8.750751 -11.027568 10.009444 3.030500 -5.247500 10.033700 -89.025467 6.395327 37.521360 21.800343 -34.940078 -7.095954 -0.226709 2.713794 0.053216 -7.125000 0.000000 0.000000 72.934653 -7.054092 47.305748 -25.810457 39.206314 -7.412789 1.124052 -2.672612 -16.534085 7.125000 0.000000 0.000000 
26.934507 17.393911 1.924375 -106.696848 -83.241700 116.860541 -33.394865 -34.638663 13.939040 -12.993235 -1.452006 -0.534832 3.877232 14.179299 -45.232770 9.009500 -16.813800 -56.123000 39.742851 32.591975 2.391799 13.582812 2.507859 -7.018025 0.496765 -25.566896 -25.854883 -0.418700 4.153500 -11.508900 1.475001 0.914568 -4.802710 1.703286 0.087010 -16.049997 8.472417 -11.330332 10.199918 2.941500 -5.446900 10.123300 -89.138946 6.502613 37.744928 22.081872 -35.210797 -7.199245 -0.247074 2.711536 -0.251622 -7.125000 0.000000 0.000000 72.844005 -6.740537 47.419121 -25.984189 39.412315 -7.536008 1.162859 -2.683138 -15.736963 7.125000 0.000000 0.000000 
26.949632 17.384771 1.976712 -111.473868 -83.204146 121.572982 -35.353851 -37.314936 16.897592 -13.004681 -2.199548 -1.912631 4.881399 15.116177 -49.240111 8.781600 -16.665100 -55.331600 39.780327 32.852948 2.978838 13.521566 2.888261 -7.665582 0.564188 -25.912844 -25.743544 -0.437200 4.243000 -11.761200 1.480465 1.013509 -4.763836 1.915361 0.189160 -15.789327 8.263482 -11.602344 10.224139 2.904300 -5.642500 10.066800 -89.313010 6.569248 38.027195 22.226258 -35.373898 -7.238474 -0.247109 2.713850 -0.314022 -7.125000 0.000000 0.000000 72.676760 -6.601986 47.559627 -26.183446 39.606045 -7.628946 1.251039 -2.659012 -15.316922 7.125000 0.000000 0.000000 
26.962689 17.371714 2.025240 -116.116985 -83.099126 126.131493 -37.673712 -40.293413 20.394820 -12.893550 -2.848498 -3.164111 6.447123 15.021321 -53.936245 8.355100 -16.374300 -53.831800 39.811692 33.134053 3.517469 13.464326 3.214926 -8.210856 0.620524 -26.193356 -25.674604 -0.445800 4.283700 -11.876100 1.452003 0.936516 -4.778128 1.874938 0.152672 -15.784089 8.018802 -11.799939 10.437090 2.789200 -5.762700 10.217100 -89.345442 6.760229 37.731838 22.147003 -35.297943 -7.217981 -0.204599 2.710245 -0.120132 -7.125000 0.000000 0.000000 72.703050 -6.306000 48.093159 -26.379274 39.787436 -7.689487 1.321118 -2.638219 -15.226574 7.125000 0.000000 0.000000 
26.977378 17.357460 2.071483 -119.680708 -82.921502 129.609568 -40.451191 -43.586614 24.608794 -12.648582 -3.367855 -4.313527 8.510071 14.342481 -59.329081 7.816700 -15.982800 -51.899900 39.875537 33.372932 3.987278 13.414527 3.493087 -8.680144 0.631951 -26.300484 -25.864375 -0.398000 4.050600 -11.219200 1.441169 0.918652 -4.769033 1.886272 0.151962 -15.676884 7.776321 -12.099770 10.442629 2.668000 -5.938900 10.214300 -89.421600 6.903106 37.581799 22.071846 -35.259087 -7.216174 -0.176338 2.713140 -0.064018 -7.125000 0.000000 0.000000 72.655212 -6.096257 48.663835 -26.645954 40.009375 -7.766348 1.279398 -2.629524 -15.619277 7.125000 0.000000 0.000000 
26.992828 17.343750 2.116856 -122.495598 -82.680654 132.319152 -44.217560 -47.421042 30.206763 -12.236716 -3.718045 -5.419181 11.102368 13.887393 -65.880595 7.309800 -15.587300 -50.036500 39.950112 33.608436 4.344248 13.374868 3.672772 -8.980672 0.556847 -26.038425 -26.479846 -0.270000 3.342500 -9.233700 1.428552 0.874239 -4.746536 1.835695 0.118405 -15.562206 7.732222 -12.297771 10.326126 2.686400 -6.062200 10.170300 -89.502655 6.928089 37.246556 21.918635 -35.146110 -7.190966 -0.176113 2.722348 -0.044324 -7.125000 0.000000 0.000000 72.583857 -5.847747 49.357605 -26.922392 40.231537 -7.832032 1.221472 -2.616772 -16.077235 7.125000 0.000000 0.000000 
27.008932 17.326776 2.160597 -125.563927 -82.473803 135.243411 -44.905933 -46.621768 31.229618 -12.308070 -4.139241 -6.172871 11.572078 11.928193 -66.541262 6.822500 -15.180600 -48.199900 39.951218 33.936346 4.545077 13.343012 3.750973 -9.104990 0.521178 -25.878639 -26.738410 -0.214500 2.981800 -8.228200 1.424918 0.815433 -4.751950 1.861485 0.086018 -15.617748 7.861229 -12.454308 10.114777 2.779200 -6.150100 10.048800 -89.462913 7.162802 36.936881 21.824520 -34.971122 -7.055868 -0.160447 2.705087 0.162883 -7.125000 0.000000 0.000000 72.664778 -5.721748 49.683776 -26.980717 40.287392 -7.838228 1.187009 -2.620294 -15.762614 7.125000 0.000000 0.000000 
27.025579 17.307735 2.203359 -129.096611 -82.241092 138.628323 -45.432214 -45.821358 31.908955 -12.368034 -4.430876 -6.690518 12.002961 10.008774 -67.167211 6.388400 -14.794400 -46.521100 39.862365 34.371919 4.611344 13.316719 3.748439 -9.090996 0.563851 -25.984491 -26.520124 -0.239200 3.147500 -8.689600 1.428815 0.768918 -4.748049 1.958362 0.073866 -15.652777 8.141620 -12.603646 9.835284 2.970600 -6.231800 9.912500 -89.363648 7.505752 36.618385 21.813417 -35.042013 -7.169261 -0.202257 2.718270 -0.091928 -7.125000 0.000000 0.000000 72.751690 -5.596818 49.809159 -26.917614 40.242129 -7.796259 1.183112 -2.620259 -15.230935 7.125000 0.000000 0.000000 
27.043642 17.292719 2.247426 -132.295574 -82.006133 141.714818 -45.857269 -45.075195 32.442638 -12.429909 -4.747695 -7.241610 12.315206 8.564366 -67.727871 6.029200 -14.456600 -45.098800 39.640783 34.830747 4.492178 13.290548 3.652179 -8.927569 0.632463 -26.111178 -26.031983 -0.294800 3.491700 -9.650700 1.435495 0.716823 -4.740225 2.092949 0.062440 -15.651757 8.445708 -12.676189 9.519109 3.160300 -6.264900 9.770600 -89.480832 7.597292 35.994299 21.405523 -34.649470 -6.975260 -0.201949 2.730086 0.137152 -7.125000 0.000000 0.000000 72.849877 -5.504099 49.892125 -26.902105 40.235046 -7.769804 1.203130 -2.612995 -15.025082 7.125000 0.000000 0.000000 
27.067579 17.282274 2.291275 -135.069057 -81.850497 144.458390 -46.182042 -44.545343 32.665320 -12.473093 -4.974217 -7.644572 12.503021 7.722649 -68.139626 5.812700 -14.244400 -44.225300 39.158959 35.263014 4.116451 13.248452 3.457065 -8.633614 0.654161 -25.945063 -25.864321 -0.278200 3.392500 -9.373500 1.438597 0.657476 -4.726187 2.259633 0.059246 -15.610126 8.786225 -12.723635 9.074203 3.357000 -6.280900 9.536900 -89.720271 7.355320 34.958748 20.445019 -33.843296 -6.690144 -0.144518 2.771943 0.826675 -7.125000 0.000000 0.000000 72.952427 -5.466649 49.850557 -26.818690 40.176397 -7.728465 1.189593 -2.617546 -14.890317 7.125000 0.000000 0.000000 
27.092170 17.276072 2.332296 -137.300675 -81.680070 146.696431 -46.321080 -44.169141 32.585883 -12.498777 -5.060582 -7.806298 12.608255 7.138340 -68.352725 5.691200 -14.122200 -43.729300 38.619369 35.682575 3.603758 13.208064 3.186722 -8.233704 0.592786 -25.456413 -26.328342 -0.190200 2.808800 -7.747000 1.445188 0.592192 -4.720457 2.373324 0.048563 -15.597301 8.861518 -12.878231 8.604130 3.346900 -6.348100 9.246300 -89.842488 7.315911 34.210750 19.768987 -33.194540 -6.399474 -0.087509 2.781722 1.469519 -7.125000 0.000000 0.000000 73.081972 -5.522511 49.883616 -26.721439 40.096036 -7.670635 1.197621 -2.616261 -15.024478 7.125000 0.000000 0.000000 
27.115455 17.272481 2.371684 -138.896022 -81.484597 148.265529 -46.325983 -43.907929 32.351102 -12.514162 -5.051588 -7.797494 12.647301 6.736163 -68.384699 5.603200 -14.032500 -43.367800 38.186895 36.044150 3.106766 13.189210 2.904850 -7.795525 0.590372 -25.264868 -26.426825 -0.185200 2.771500 -7.643100 1.451933 0.480026 -4.726410 2.377414 -0.002072 -15.648891 8.697621 -13.111563 8.305656 3.155200 -6.446700 9.060300 -89.803342 7.478853 33.557982 19.256849 -32.791344 -6.323206 -0.038330 2.802743 1.660673 -7.125000 0.000000 0.000000 73.303575 -5.626116 50.011824 -26.646704 40.034098 -7.619042 1.191493 -2.621041 -15.315374 7.125000 0.000000 0.000000 
27.142765 17.270522 2.408788 -139.855576 -81.360861 149.173303 -46.315655 -43.809467 32.038999 -12.527535 -4.975606 -7.664707 12.600653 6.919810 -68.270675 5.648600 -14.079000 -43.554800 37.830478 36.272024 2.657255 13.187052 2.635483 -7.350414 0.656918 -25.351314 -25.985434 -0.241900 3.164800 -8.737900 1.483496 0.444334 -4.692129 2.588297 0.025048 -15.535889 8.662646 -13.412090 8.034006 3.067600 -6.584400 8.901300 -89.800295 7.416375 33.400961 18.653110 -32.205554 -6.056493 0.002038 2.808190 1.700883 -7.125000 0.000000 0.000000 73.419032 -5.837043 49.705501 -26.452904 39.872348 -7.544069 1.142599 -2.634296 -15.193751 7.125000 0.000000 0.000000 
